<svg width="32" height="32" viewBox="0 0 32 32" fill="none" xmlns="http://www.w3.org/2000/svg">
  <!-- Background rounded square -->
  <rect width="32" height="32" rx="6" fill="#0f172a"/>

  <!-- P letter path -->
  <path d="M6 8h6c3.3 0 6 2.7 6 6s-2.7 6-6 6H9v5H6V8zm3 9h3c1.7 0 3-1.3 3-3s-1.3-3-3-3H9v6z" fill="white"/>

  <!-- C letter path in brand blue -->
  <path d="M26 12c-1.1-1.2-2.7-2-4.5-2-3.6 0-6.5 2.9-6.5 6.5s2.9 6.5 6.5 6.5c1.8 0 3.4-.8 4.5-2l-2.1-2.1c-.6.7-1.5 1.1-2.4 1.1-2 0-3.5-1.5-3.5-3.5s1.5-3.5 3.5-3.5c.9 0 1.8.4 2.4 1.1L26 12z" fill="#2563eb"/>
</svg>
